<mxfile host="app.diagrams.net" modified="2024-06-05T12:09:32.010Z" agent="Mozilla/5.0 (Windows NT 10.0; Win64; x64) AppleWebKit/537.36 (KHTML, like Gecko) Chrome/125.0.0.0 Safari/537.36" etag="v9bY-5PR3OJWcuwDoaD5" version="24.3.1" type="github">
  <diagram id="C5RBs43oDa-KdzZeNtuy" name="Page-1">
    <mxGraphModel dx="1059" dy="657" grid="0" gridSize="10" guides="1" tooltips="1" connect="1" arrows="1" fold="1" page="1" pageScale="1" pageWidth="827" pageHeight="1169" math="0" shadow="0">
      <root>
        <mxCell id="WIyWlLk6GJQsqaUBKTNV-0" />
        <mxCell id="WIyWlLk6GJQsqaUBKTNV-1" parent="WIyWlLk6GJQsqaUBKTNV-0" />
        <mxCell id="WIyWlLk6GJQsqaUBKTNV-2" value="" style="rounded=0;html=1;jettySize=auto;orthogonalLoop=1;fontSize=11;endArrow=block;endFill=1;endSize=8;strokeWidth=1;shadow=0;labelBackgroundColor=none;edgeStyle=orthogonalEdgeStyle;" parent="WIyWlLk6GJQsqaUBKTNV-1" source="WIyWlLk6GJQsqaUBKTNV-3" target="WIyWlLk6GJQsqaUBKTNV-6" edge="1">
          <mxGeometry relative="1" as="geometry" />
        </mxCell>
        <mxCell id="WIyWlLk6GJQsqaUBKTNV-3" value="Start" style="rounded=1;whiteSpace=wrap;html=1;fontSize=12;glass=0;strokeWidth=1;shadow=0;" parent="WIyWlLk6GJQsqaUBKTNV-1" vertex="1">
          <mxGeometry x="2" y="50" width="120" height="40" as="geometry" />
        </mxCell>
        <mxCell id="RVJq65xxHLT35jZt_7Yv-9" style="edgeStyle=orthogonalEdgeStyle;rounded=0;orthogonalLoop=1;jettySize=auto;html=1;exitX=1;exitY=0.5;exitDx=0;exitDy=0;entryX=0;entryY=0.5;entryDx=0;entryDy=0;" edge="1" parent="WIyWlLk6GJQsqaUBKTNV-1" source="WIyWlLk6GJQsqaUBKTNV-6" target="RVJq65xxHLT35jZt_7Yv-3">
          <mxGeometry relative="1" as="geometry" />
        </mxCell>
        <mxCell id="WIyWlLk6GJQsqaUBKTNV-6" value="Fetch Data of glusr downloaded within 2-5days" style="rounded=1;whiteSpace=wrap;html=1;shadow=0;fontFamily=Helvetica;fontSize=12;align=center;strokeWidth=1;spacing=6;spacingTop=-4;" parent="WIyWlLk6GJQsqaUBKTNV-1" vertex="1">
          <mxGeometry x="132" y="128" width="163" height="49" as="geometry" />
        </mxCell>
        <mxCell id="RVJq65xxHLT35jZt_7Yv-2" style="edgeStyle=orthogonalEdgeStyle;rounded=0;orthogonalLoop=1;jettySize=auto;html=1;exitX=1;exitY=0;exitDx=0;exitDy=52.5;exitPerimeter=0;entryX=0;entryY=0.5;entryDx=0;entryDy=0;" edge="1" parent="WIyWlLk6GJQsqaUBKTNV-1" source="RVJq65xxHLT35jZt_7Yv-1" target="WIyWlLk6GJQsqaUBKTNV-6">
          <mxGeometry relative="1" as="geometry" />
        </mxCell>
        <mxCell id="RVJq65xxHLT35jZt_7Yv-1" value="MeshR&lt;br&gt;DB" style="shape=cylinder3;whiteSpace=wrap;html=1;boundedLbl=1;backgroundOutline=1;size=15;" vertex="1" parent="WIyWlLk6GJQsqaUBKTNV-1">
          <mxGeometry x="15" y="117" width="60" height="80" as="geometry" />
        </mxCell>
        <mxCell id="RVJq65xxHLT35jZt_7Yv-10" style="edgeStyle=orthogonalEdgeStyle;rounded=0;orthogonalLoop=1;jettySize=auto;html=1;exitX=0.5;exitY=1;exitDx=0;exitDy=0;" edge="1" parent="WIyWlLk6GJQsqaUBKTNV-1" source="RVJq65xxHLT35jZt_7Yv-3" target="RVJq65xxHLT35jZt_7Yv-11">
          <mxGeometry relative="1" as="geometry">
            <mxPoint x="427" y="227.66668701171875" as="targetPoint" />
          </mxGeometry>
        </mxCell>
        <mxCell id="RVJq65xxHLT35jZt_7Yv-3" value="Fetch the data from solr for the same UsrID, MactID and CityID" style="rounded=1;whiteSpace=wrap;html=1;" vertex="1" parent="WIyWlLk6GJQsqaUBKTNV-1">
          <mxGeometry x="341" y="128" width="172" height="50" as="geometry" />
        </mxCell>
        <mxCell id="RVJq65xxHLT35jZt_7Yv-6" style="edgeStyle=orthogonalEdgeStyle;rounded=0;orthogonalLoop=1;jettySize=auto;html=1;entryX=0.5;entryY=0;entryDx=0;entryDy=0;exitX=0;exitY=0.5;exitDx=0;exitDy=0;" edge="1" parent="WIyWlLk6GJQsqaUBKTNV-1" source="RVJq65xxHLT35jZt_7Yv-5" target="RVJq65xxHLT35jZt_7Yv-3">
          <mxGeometry relative="1" as="geometry">
            <mxPoint x="485" y="94" as="sourcePoint" />
          </mxGeometry>
        </mxCell>
        <mxCell id="RVJq65xxHLT35jZt_7Yv-5" value="" style="shape=image;verticalLabelPosition=bottom;labelBackgroundColor=default;verticalAlign=top;aspect=fixed;imageAspect=0;image=data:image/png,iVBORw0KGgoAAAANSUhEUgAAAQMAAADDCAMAAACxkIT5AAAAkFBMVEX////aQyfZNxTtr6btrKPYMADZORfaQCLXKADqnpPXJgDXLADZOxvZPR7eWUPaQSXYMwv339z++fj65+T87+3yxb/22NTic2PrpZz10s3njYHhb17vuLHdUzvieGj99PPkgHLbSC3lhnneXknVEwDpmY7vuLDfY1DeXEbgaVfhcF/xwLnnkofpmo/108/54+GF10GvAAAG8UlEQVR4nO2dC3eiPBCGQzAECZjIxeINBLHWlW/9///uS8B6K/biajE6z9me07rKSV6TycyQDAgBAAAAAAAAAAAAAAAAAAAAAAAAAAAAAAAAAAAAAAA8Gn7bDWiXsPOCbWbjl07YdlNaIkgc7HHDMLiHnSRouzkt4I8cz9jjOaOnmxQmsYxjLGK23ahfZZgJbpzCRTZsu2G/Rjhm9IMCCsrGT2IcyyNDcIznLNpu3i/wKk4NwYlZwJO2m3hjBtMGQ3BqFqaDtpt5Q8LEbjYEJ2bBTh7WLHTt84bgxCzY3bYbexPWLv6mAgrsrttu8NXpv5GvDMExnLz12270VUln3zIEx1B7lrbd8OsRM/fHCihcFrfd9CsRcfyzabBHfjJqu/lXYLP8oSE4UYEsN2134R/x8wsMwTHUzrWOqjsfIuRLsEin7Y5cTGOEfAnaRtXB6kyEfAmUrfRLtvnltx3j7+HZpWZmwfwiQr4ES7y23a0f0P86Qr4EGVVr4z6bzvUMwTHU0STv2mU3UkDBtAiqJ/YNJTAMW4NUW8BuYQr2cHb/i+T4ukviR7xV2138isEtjUENu/eUa35ZpuAnuHnbnfwC97bWQMGttjv5Of3bTwU5Ge7bU4rEL2gg7jvlbP4kf34p+L6dxd/R4L5TKqABaKAADa6hAbcEY8zDn7jcD64B97LuMEj9ZJ3YZz3Ox9bANZLqvlK/i1A6ss/4nA+tAR6jURUQ9ar06V/anI/SUwN6OrtpU8oVJwgZagdKNKqvVnqNI0FLDehbYhlcIn/llSQvsboPy4++Z7qUFyjUVUS9FeclaA4/tNSADFCPGriHuTXPXE7muBxklLrZ/DC8sP6ThkDIi3Rm1bXmclosGseLhhpw7ndMZvpB6MR/UeKh4DVHG+TN0sF6/37uynEwkT9+UWXL6ttrTUl6HTWw/gvitOhEBZrOojQuNwUbhYW/GgZDtB/s2HQQGs3kz1heyBf1xoOyYSDoqAHpDydoGW8wctHbMM599jYKpAbR2n7bWQSepcUGTWMUFnIOhM42Ph6Qh9CAGyF3Jt04CDu22Z+UJPLjJHIGy2yQdnZfs5ujYo2cV/RnjlBQbLsZNOXmNNTA4IQbmJlRgQ1MsMsFsTxhCKp+2b3JyxFZBMXfQTFEg6K+kzJYzXz60SDoqEEFTfKmEIC67nY62OF8HDlhb4qGReUfDKdzaRwbXARNNeCuJUSD10eXeT6vX6cvpVWSVyeKCukrobXB1cLgN+zn0lIDLqy8u8jn9oeVTqXF4u2E8KbSZ8p6ZjFW9+6399SCx7CJBsfvSdDI4B+70303CtX5rkz8CRdO8b4xcd2QpNVQAy52dwjT02/1SIP63TRxit1OtHTVMIE01MCK1Sk2L3uJg877f/OD7uw1qF+1khAFw0k8WzI2b0oiaKgB6SOUCM49XC+FHDMi/7kHGlBCqGExUu3iysaiKAqRxMMUvTStJRpqwGQUmO2HNBWmCgs3VYqk1oD2wrDnLFKEpiqanI7MQb1bO268ZaOhBuSvjP92uxLo9H2uD+Vr7xrIkVJtuFIrIV0t1vX+XLP5zp2GGrjK44lZvdBzIgdBUOYdqcSEHGggg4R+NFQfz5ZEzoXpaD06c/NSQw1U+kBaxU4m53yVJNg4lisy+VqP7jVAaGWLauh70iaGG9MT55KqOmrAWe3vRJllEDnKZ6pzQnpHr/hAg2T3UWrn5fyT/f46aiAnwLzOBiSWyhNV3qInHeI+2WuQOgcf8NzPdvdpqYFaDETl+RlYzopq4xpVITLba9BvcIofSwPlFbihMo3yTU+rgWy6XB8ix9/u1/Fmx3PhsTXguJ7cuFQayDUiV+4imah3P4kGPFsvHSIwUXNhQXKEQiIsopaCKX0WDag0g4P1RK0MqeBMLo5pZ6FWy4kwnkiDLeGUGtx7j6SHzDjQYPPIGhjeatL31Vgoq7CQ26XaWzeYKU/YXfQ3I5dPN/2mZMnjaGBQTJhts10S2ZJ/MlJHxS5RQTQn5Aeb+nTU4NqABqABaAAagAYHGtz3fmXYtw7nFyqad5JdlXs/x/Ir55lmbXfyC/q3PeGpuPtzbXC+URLCOVeE1jc+76xFEYT4liLoce4d6h9UQB0MxeQm9VC0GQRbrl8XR8Mi1MG5CsKXoGV9JMU162TpWz7vY0XxS9C5XhpSe/Kevm4eUvUT/8l5foD6iYrI+Ic6mlRfQ3AM1FNFUFe35oL6yj2dHOPvAXW2Fd3zR9lPeNR66wjq7tfA8xcUr/hzs6BXxdBLWXz6PJay7eb9DuGfp38uD4LnM9XAc7oQPK+tBp7bp4DnN255xikAAAAAAAAAAAAAAAAAAAAAAAAAAAAAAAAAAAAAAMCj8z8as3tsGcJpFAAAAABJRU5ErkJggg==;clipPath=inset(18.72% 29.54% 20.26% 29.54%);" vertex="1" parent="WIyWlLk6GJQsqaUBKTNV-1">
          <mxGeometry x="493" y="41" width="70.72" height="79.39" as="geometry" />
        </mxCell>
        <mxCell id="RVJq65xxHLT35jZt_7Yv-14" style="edgeStyle=orthogonalEdgeStyle;rounded=0;orthogonalLoop=1;jettySize=auto;html=1;exitX=0;exitY=0.5;exitDx=0;exitDy=0;entryX=1;entryY=0.5;entryDx=0;entryDy=0;" edge="1" parent="WIyWlLk6GJQsqaUBKTNV-1" source="RVJq65xxHLT35jZt_7Yv-11" target="RVJq65xxHLT35jZt_7Yv-13">
          <mxGeometry relative="1" as="geometry" />
        </mxCell>
        <mxCell id="RVJq65xxHLT35jZt_7Yv-11" value="&lt;p style=&quot;line-height: 100%;&quot;&gt;&lt;font face=&quot;Helvetica&quot; style=&quot;font-size: 12px;&quot;&gt;Compare if present in Solr Index&amp;nbsp;&lt;/font&gt;&lt;/p&gt;" style="rhombus;whiteSpace=wrap;html=1;align=center;" vertex="1" parent="WIyWlLk6GJQsqaUBKTNV-1">
          <mxGeometry x="377" y="227" width="100" height="103" as="geometry" />
        </mxCell>
        <mxCell id="RVJq65xxHLT35jZt_7Yv-13" value="Write the mismatch in a Csv File" style="rounded=1;whiteSpace=wrap;html=1;" vertex="1" parent="WIyWlLk6GJQsqaUBKTNV-1">
          <mxGeometry x="216" y="248.5" width="120" height="60" as="geometry" />
        </mxCell>
        <mxCell id="RVJq65xxHLT35jZt_7Yv-15" value="Yes" style="text;html=1;align=center;verticalAlign=middle;whiteSpace=wrap;rounded=0;" vertex="1" parent="WIyWlLk6GJQsqaUBKTNV-1">
          <mxGeometry x="333" y="254" width="60" height="30" as="geometry" />
        </mxCell>
        <mxCell id="RVJq65xxHLT35jZt_7Yv-31" value="" style="rounded=0;html=1;jettySize=auto;orthogonalLoop=1;fontSize=11;endArrow=block;endFill=1;endSize=8;strokeWidth=1;shadow=0;labelBackgroundColor=none;edgeStyle=orthogonalEdgeStyle;" edge="1" parent="WIyWlLk6GJQsqaUBKTNV-1" source="RVJq65xxHLT35jZt_7Yv-32" target="RVJq65xxHLT35jZt_7Yv-34">
          <mxGeometry relative="1" as="geometry" />
        </mxCell>
        <mxCell id="RVJq65xxHLT35jZt_7Yv-32" value="Start the second phase" style="rounded=1;whiteSpace=wrap;html=1;fontSize=12;glass=0;strokeWidth=1;shadow=0;" vertex="1" parent="WIyWlLk6GJQsqaUBKTNV-1">
          <mxGeometry x="50" y="338" width="120" height="40" as="geometry" />
        </mxCell>
        <mxCell id="RVJq65xxHLT35jZt_7Yv-33" style="edgeStyle=orthogonalEdgeStyle;rounded=0;orthogonalLoop=1;jettySize=auto;html=1;exitX=1;exitY=0.5;exitDx=0;exitDy=0;entryX=0;entryY=0.5;entryDx=0;entryDy=0;" edge="1" parent="WIyWlLk6GJQsqaUBKTNV-1" source="RVJq65xxHLT35jZt_7Yv-34" target="RVJq65xxHLT35jZt_7Yv-38">
          <mxGeometry relative="1" as="geometry" />
        </mxCell>
        <mxCell id="RVJq65xxHLT35jZt_7Yv-34" value="Fetch Data of glusr upgraded to listing services within 2-5days" style="rounded=1;whiteSpace=wrap;html=1;shadow=0;fontFamily=Helvetica;fontSize=12;align=center;strokeWidth=1;spacing=6;spacingTop=-4;" vertex="1" parent="WIyWlLk6GJQsqaUBKTNV-1">
          <mxGeometry x="174" y="417" width="163" height="49" as="geometry" />
        </mxCell>
        <mxCell id="RVJq65xxHLT35jZt_7Yv-35" style="edgeStyle=orthogonalEdgeStyle;rounded=0;orthogonalLoop=1;jettySize=auto;html=1;exitX=1;exitY=0;exitDx=0;exitDy=52.5;exitPerimeter=0;entryX=0;entryY=0.5;entryDx=0;entryDy=0;" edge="1" parent="WIyWlLk6GJQsqaUBKTNV-1" source="RVJq65xxHLT35jZt_7Yv-36" target="RVJq65xxHLT35jZt_7Yv-34">
          <mxGeometry relative="1" as="geometry" />
        </mxCell>
        <mxCell id="RVJq65xxHLT35jZt_7Yv-36" value="MeshR&lt;br&gt;DB" style="shape=cylinder3;whiteSpace=wrap;html=1;boundedLbl=1;backgroundOutline=1;size=15;" vertex="1" parent="WIyWlLk6GJQsqaUBKTNV-1">
          <mxGeometry x="57" y="406" width="60" height="80" as="geometry" />
        </mxCell>
        <mxCell id="RVJq65xxHLT35jZt_7Yv-37" style="edgeStyle=orthogonalEdgeStyle;rounded=0;orthogonalLoop=1;jettySize=auto;html=1;exitX=0.5;exitY=1;exitDx=0;exitDy=0;" edge="1" parent="WIyWlLk6GJQsqaUBKTNV-1" source="RVJq65xxHLT35jZt_7Yv-38" target="RVJq65xxHLT35jZt_7Yv-42">
          <mxGeometry relative="1" as="geometry">
            <mxPoint x="469" y="516.6666870117188" as="targetPoint" />
          </mxGeometry>
        </mxCell>
        <mxCell id="RVJq65xxHLT35jZt_7Yv-38" value="Fetch the documents from solr for the same UsrID mapped to the MactID" style="rounded=1;whiteSpace=wrap;html=1;" vertex="1" parent="WIyWlLk6GJQsqaUBKTNV-1">
          <mxGeometry x="383" y="417" width="172" height="50" as="geometry" />
        </mxCell>
        <mxCell id="RVJq65xxHLT35jZt_7Yv-39" style="edgeStyle=orthogonalEdgeStyle;rounded=0;orthogonalLoop=1;jettySize=auto;html=1;entryX=0.5;entryY=0;entryDx=0;entryDy=0;exitX=0;exitY=0.5;exitDx=0;exitDy=0;" edge="1" parent="WIyWlLk6GJQsqaUBKTNV-1" source="RVJq65xxHLT35jZt_7Yv-40" target="RVJq65xxHLT35jZt_7Yv-38">
          <mxGeometry relative="1" as="geometry">
            <mxPoint x="527" y="383" as="sourcePoint" />
          </mxGeometry>
        </mxCell>
        <mxCell id="RVJq65xxHLT35jZt_7Yv-40" value="" style="shape=image;verticalLabelPosition=bottom;labelBackgroundColor=default;verticalAlign=top;aspect=fixed;imageAspect=0;image=data:image/png,iVBORw0KGgoAAAANSUhEUgAAAQMAAADDCAMAAACxkIT5AAAAkFBMVEX////aQyfZNxTtr6btrKPYMADZORfaQCLXKADqnpPXJgDXLADZOxvZPR7eWUPaQSXYMwv339z++fj65+T87+3yxb/22NTic2PrpZz10s3njYHhb17vuLHdUzvieGj99PPkgHLbSC3lhnneXknVEwDpmY7vuLDfY1DeXEbgaVfhcF/xwLnnkofpmo/108/54+GF10GvAAAG8UlEQVR4nO2dC3eiPBCGQzAECZjIxeINBLHWlW/9///uS8B6K/biajE6z9me07rKSV6TycyQDAgBAAAAAAAAAAAAAAAAAAAAAAAAAAAAAAAAAAAAAAA8Gn7bDWiXsPOCbWbjl07YdlNaIkgc7HHDMLiHnSRouzkt4I8cz9jjOaOnmxQmsYxjLGK23ahfZZgJbpzCRTZsu2G/Rjhm9IMCCsrGT2IcyyNDcIznLNpu3i/wKk4NwYlZwJO2m3hjBtMGQ3BqFqaDtpt5Q8LEbjYEJ2bBTh7WLHTt84bgxCzY3bYbexPWLv6mAgrsrttu8NXpv5GvDMExnLz12270VUln3zIEx1B7lrbd8OsRM/fHCihcFrfd9CsRcfyzabBHfjJqu/lXYLP8oSE4UYEsN2134R/x8wsMwTHUzrWOqjsfIuRLsEin7Y5cTGOEfAnaRtXB6kyEfAmUrfRLtvnltx3j7+HZpWZmwfwiQr4ES7y23a0f0P86Qr4EGVVr4z6bzvUMwTHU0STv2mU3UkDBtAiqJ/YNJTAMW4NUW8BuYQr2cHb/i+T4ukviR7xV2138isEtjUENu/eUa35ZpuAnuHnbnfwC97bWQMGttjv5Of3bTwU5Ge7bU4rEL2gg7jvlbP4kf34p+L6dxd/R4L5TKqABaKAADa6hAbcEY8zDn7jcD64B97LuMEj9ZJ3YZz3Ox9bANZLqvlK/i1A6ss/4nA+tAR6jURUQ9ar06V/anI/SUwN6OrtpU8oVJwgZagdKNKqvVnqNI0FLDehbYhlcIn/llSQvsboPy4++Z7qUFyjUVUS9FeclaA4/tNSADFCPGriHuTXPXE7muBxklLrZ/DC8sP6ThkDIi3Rm1bXmclosGseLhhpw7ndMZvpB6MR/UeKh4DVHG+TN0sF6/37uynEwkT9+UWXL6ttrTUl6HTWw/gvitOhEBZrOojQuNwUbhYW/GgZDtB/s2HQQGs3kz1heyBf1xoOyYSDoqAHpDydoGW8wctHbMM599jYKpAbR2n7bWQSepcUGTWMUFnIOhM42Ph6Qh9CAGyF3Jt04CDu22Z+UJPLjJHIGy2yQdnZfs5ujYo2cV/RnjlBQbLsZNOXmNNTA4IQbmJlRgQ1MsMsFsTxhCKp+2b3JyxFZBMXfQTFEg6K+kzJYzXz60SDoqEEFTfKmEIC67nY62OF8HDlhb4qGReUfDKdzaRwbXARNNeCuJUSD10eXeT6vX6cvpVWSVyeKCukrobXB1cLgN+zn0lIDLqy8u8jn9oeVTqXF4u2E8KbSZ8p6ZjFW9+6399SCx7CJBsfvSdDI4B+70303CtX5rkz8CRdO8b4xcd2QpNVQAy52dwjT02/1SIP63TRxit1OtHTVMIE01MCK1Sk2L3uJg877f/OD7uw1qF+1khAFw0k8WzI2b0oiaKgB6SOUCM49XC+FHDMi/7kHGlBCqGExUu3iysaiKAqRxMMUvTStJRpqwGQUmO2HNBWmCgs3VYqk1oD2wrDnLFKEpiqanI7MQb1bO268ZaOhBuSvjP92uxLo9H2uD+Vr7xrIkVJtuFIrIV0t1vX+XLP5zp2GGrjK44lZvdBzIgdBUOYdqcSEHGggg4R+NFQfz5ZEzoXpaD06c/NSQw1U+kBaxU4m53yVJNg4lisy+VqP7jVAaGWLauh70iaGG9MT55KqOmrAWe3vRJllEDnKZ6pzQnpHr/hAg2T3UWrn5fyT/f46aiAnwLzOBiSWyhNV3qInHeI+2WuQOgcf8NzPdvdpqYFaDETl+RlYzopq4xpVITLba9BvcIofSwPlFbihMo3yTU+rgWy6XB8ix9/u1/Fmx3PhsTXguJ7cuFQayDUiV+4imah3P4kGPFsvHSIwUXNhQXKEQiIsopaCKX0WDag0g4P1RK0MqeBMLo5pZ6FWy4kwnkiDLeGUGtx7j6SHzDjQYPPIGhjeatL31Vgoq7CQ26XaWzeYKU/YXfQ3I5dPN/2mZMnjaGBQTJhts10S2ZJ/MlJHxS5RQTQn5Aeb+nTU4NqABqABaAAagAYHGtz3fmXYtw7nFyqad5JdlXs/x/Ir55lmbXfyC/q3PeGpuPtzbXC+URLCOVeE1jc+76xFEYT4liLoce4d6h9UQB0MxeQm9VC0GQRbrl8XR8Mi1MG5CsKXoGV9JMU162TpWz7vY0XxS9C5XhpSe/Kevm4eUvUT/8l5foD6iYrI+Ic6mlRfQ3AM1FNFUFe35oL6yj2dHOPvAXW2Fd3zR9lPeNR66wjq7tfA8xcUr/hzs6BXxdBLWXz6PJay7eb9DuGfp38uD4LnM9XAc7oQPK+tBp7bp4DnN255xikAAAAAAAAAAAAAAAAAAAAAAAAAAAAAAAAAAAAAAMCj8z8as3tsGcJpFAAAAABJRU5ErkJggg==;clipPath=inset(18.72% 29.54% 20.26% 29.54%);" vertex="1" parent="WIyWlLk6GJQsqaUBKTNV-1">
          <mxGeometry x="535" y="330" width="70.72" height="79.39" as="geometry" />
        </mxCell>
        <mxCell id="RVJq65xxHLT35jZt_7Yv-41" style="edgeStyle=orthogonalEdgeStyle;rounded=0;orthogonalLoop=1;jettySize=auto;html=1;exitX=0;exitY=0.5;exitDx=0;exitDy=0;entryX=1;entryY=0.5;entryDx=0;entryDy=0;" edge="1" parent="WIyWlLk6GJQsqaUBKTNV-1" source="RVJq65xxHLT35jZt_7Yv-42" target="RVJq65xxHLT35jZt_7Yv-43">
          <mxGeometry relative="1" as="geometry" />
        </mxCell>
        <mxCell id="RVJq65xxHLT35jZt_7Yv-42" value="&lt;p style=&quot;line-height: 100%;&quot;&gt;&lt;font face=&quot;Helvetica&quot; style=&quot;font-size: 12px;&quot;&gt;Compare if present in Solr Index&amp;nbsp;&lt;/font&gt;&lt;/p&gt;" style="rhombus;whiteSpace=wrap;html=1;align=center;" vertex="1" parent="WIyWlLk6GJQsqaUBKTNV-1">
          <mxGeometry x="419" y="516" width="100" height="103" as="geometry" />
        </mxCell>
        <mxCell id="RVJq65xxHLT35jZt_7Yv-50" style="edgeStyle=orthogonalEdgeStyle;rounded=0;orthogonalLoop=1;jettySize=auto;html=1;exitX=0;exitY=0.5;exitDx=0;exitDy=0;entryX=1;entryY=0.5;entryDx=0;entryDy=0;" edge="1" parent="WIyWlLk6GJQsqaUBKTNV-1" source="RVJq65xxHLT35jZt_7Yv-43" target="RVJq65xxHLT35jZt_7Yv-48">
          <mxGeometry relative="1" as="geometry" />
        </mxCell>
        <mxCell id="RVJq65xxHLT35jZt_7Yv-43" value="Write the mismatch in a Csv File" style="rounded=1;whiteSpace=wrap;html=1;" vertex="1" parent="WIyWlLk6GJQsqaUBKTNV-1">
          <mxGeometry x="258" y="537.5" width="120" height="60" as="geometry" />
        </mxCell>
        <mxCell id="RVJq65xxHLT35jZt_7Yv-44" value="No" style="text;html=1;align=center;verticalAlign=middle;whiteSpace=wrap;rounded=0;" vertex="1" parent="WIyWlLk6GJQsqaUBKTNV-1">
          <mxGeometry x="375" y="543" width="60" height="30" as="geometry" />
        </mxCell>
        <mxCell id="RVJq65xxHLT35jZt_7Yv-45" value="Compare if the document is present with flag service" style="text;html=1;align=center;verticalAlign=middle;whiteSpace=wrap;rounded=0;" vertex="1" parent="WIyWlLk6GJQsqaUBKTNV-1">
          <mxGeometry x="523" y="552.5" width="60" height="30" as="geometry" />
        </mxCell>
        <mxCell id="RVJq65xxHLT35jZt_7Yv-46" style="edgeStyle=orthogonalEdgeStyle;rounded=0;orthogonalLoop=1;jettySize=auto;html=1;exitX=0;exitY=0.5;exitDx=0;exitDy=0;entryX=0.417;entryY=0.042;entryDx=0;entryDy=0;entryPerimeter=0;" edge="1" parent="WIyWlLk6GJQsqaUBKTNV-1" source="RVJq65xxHLT35jZt_7Yv-13" target="RVJq65xxHLT35jZt_7Yv-32">
          <mxGeometry relative="1" as="geometry" />
        </mxCell>
        <mxCell id="RVJq65xxHLT35jZt_7Yv-48" value="End" style="rounded=1;whiteSpace=wrap;html=1;" vertex="1" parent="WIyWlLk6GJQsqaUBKTNV-1">
          <mxGeometry x="132" y="545.25" width="85" height="44.5" as="geometry" />
        </mxCell>
      </root>
    </mxGraphModel>
  </diagram>
</mxfile>
